<svg width="49" height="59" viewBox="0 0 49 59" fill="none" xmlns="http://www.w3.org/2000/svg">
<path d="M46.5309 11.8313C46.1208 11.6746 45.6938 11.6067 45.2997 11.6341C44.7302 11.6737 44.2702 11.905 43.9978 12.2834C42.3929 14.5315 41.0785 18.7771 40.0186 22.1883C39.5321 23.7659 38.8791 25.877 38.4062 26.879C37.9129 24.0718 38.4701 13.7887 38.6862 9.82865L38.6897 9.76465C38.8396 7.01335 38.8597 6.53085 38.8269 6.31905C38.5888 4.80975 37.984 3.81915 37.0285 3.37575C36.0625 2.92605 34.808 3.12495 33.4565 3.93815C32.779 4.34785 32.5916 5.75425 32.01 12.129L32.0079 12.157C31.6877 15.6592 30.9506 23.7229 30.0435 25.0658C29.0201 23.1869 27.6121 12.5118 27.0043 7.89105C26.579 4.65485 26.3313 2.79675 26.1649 2.23565C25.8143 1.05995 24.3344 0.0595515 22.869 0.00405149C21.6493 -0.0564485 20.6485 0.563953 20.1708 1.64195C19.2773 2.63635 19.593 5.93395 20.5807 13.7442C21.0508 17.4612 22.0213 25.1392 21.4105 26.0004C20.1928 25.8681 18.1022 21.0587 15.1961 11.7019C14.3808 9.08145 14.1284 8.29325 13.8779 7.94825C13.3843 6.74665 11.7066 5.81975 10.2024 5.92445C10.0739 5.93335 9.94898 5.95005 9.82568 5.97355C9.03828 6.12995 7.24148 6.85465 7.62448 10.1994C8.68548 14.8363 9.83798 18.2408 10.9565 21.5453L10.9791 21.6115C11.6483 23.5908 12.2809 25.4609 12.8688 27.5364C14.2544 32.4366 13.7156 35.477 13.709 35.5112C13.663 35.8242 13.5663 36.0152 13.421 36.082C13.3687 36.1066 13.3017 36.1211 13.2261 36.1264C12.787 36.1569 12.1284 35.8663 11.7889 35.6768C11.0136 34.195 7.15308 27.1325 3.65498 26.153L3.52938 26.1159L3.40218 26.1277C2.11918 26.2489 1.17578 26.7337 0.599285 27.5687C-0.314315 28.8891 0.0637821 30.5709 0.155582 30.9081L0.207184 31.0291C0.235684 31.0799 3.04098 36.194 3.47508 38.573C3.84948 40.6125 5.78648 42.8231 7.34378 44.5991L7.40798 44.6712C7.91598 45.2524 8.35438 45.7547 8.70018 46.2196C13.2189 50.9326 20.3651 54.8974 20.4233 54.9284C21.3149 55.5864 21.8108 56.2223 21.8631 56.7693C21.8963 57.1283 21.7102 57.3423 21.7037 57.3493L21.5481 57.5114L22.5359 58.4714L41.3894 57.1474L42.1932 53.4641C44.6788 43.0616 44.1599 34.1921 44.1517 34.1329C44.1608 33.8065 44.8575 30.6507 45.4177 28.1009L45.4342 28.036C46.5509 22.9565 47.9398 16.6363 48.2061 14.2324C48.322 13.2046 47.6644 12.2604 46.5309 11.8313Z" fill="white"/>
</svg>
