<svg width="151" height="154" viewBox="0 0 151 154" fill="none" xmlns="http://www.w3.org/2000/svg">
<g id="placeholder">
<g id="border-group">
<path id="border" d="M75.5 148C115.541 148 148 114.869 148 74C148 33.1309 115.541 0 75.5 0C35.4594 0 3 33.1309 3 74C3 114.869 35.4594 148 75.5 148Z" fill="#0075FF"/>
<path id="border-shade" d="M79 141C112.966 141 140.5 113.018 140.5 78.5C140.5 43.9822 112.966 16 79 16C45.0345 16 17.5 43.9822 17.5 78.5C17.5 113.018 45.0345 141 79 141Z" fill="#0554B1"/>
</g>
<g id="background-group">
<path id="background-shade" d="M75.5 132C107.533 132 133.5 106.033 133.5 74C133.5 41.9675 107.533 16 75.5 16C43.4675 16 17.5 41.9675 17.5 74C17.5 106.033 43.4675 132 75.5 132Z" fill="#B7B7B7"/>
<path id="background" d="M71.5 132C101.323 132 125.5 107.376 125.5 77C125.5 46.6243 101.323 22 71.5 22C41.6766 22 17.5 46.6243 17.5 77C17.5 107.376 41.6766 132 71.5 132Z" fill="#DADADA"/>
</g>
</g>
</svg>
