<svg width="151" height="154" viewBox="0 0 151 154" fill="none" xmlns="http://www.w3.org/2000/svg">
<g id="spock-new">
<g id="border-group">
<path id="border" d="M75.5 148C115.541 148 148 114.869 148 74C148 33.1309 115.541 0 75.5 0C35.4594 0 3 33.1309 3 74C3 114.869 35.4594 148 75.5 148Z" fill="#0075FF"/>
<path id="border-shade" d="M79 141C112.966 141 140.5 113.018 140.5 78.5C140.5 43.9822 112.966 16 79 16C45.0345 16 17.5 43.9822 17.5 78.5C17.5 113.018 45.0345 141 79 141Z" fill="#0554B1"/>
</g>
<g id="background-group">
<path id="background-shade" d="M75.5 132C107.533 132 133.5 106.033 133.5 74C133.5 41.9675 107.533 16 75.5 16C43.4675 16 17.5 41.9675 17.5 74C17.5 106.033 43.4675 132 75.5 132Z" fill="#B7B7B7"/>
<path id="background" d="M71.5 132C101.323 132 125.5 107.376 125.5 77C125.5 46.6243 101.323 22 71.5 22C41.6766 22 17.5 46.6243 17.5 77C17.5 107.376 41.6766 132 71.5 132Z" fill="#DADADA"/>
</g>
<path id="Vector" d="M93.5814 79.9487L92.7189 79.0896C90.6568 77.0355 87.2859 76.5882 84.7684 78.0287L79.3926 81.0878L80.513 56.5864C80.513 54.5323 78.8348 52.8604 76.7702 52.8604C76.3244 52.8604 75.8953 52.9388 75.4972 53.0823L75.6307 51.7675C75.6309 49.6898 73.9263 48 71.8332 48C69.8975 48 68.274 49.4454 68.0689 51.2988L64.6194 72.0482C64.5741 72.3306 64.0829 72.3021 64.0305 72.1242L59.9563 55.4889C59.5105 53.9416 58.0706 52.8605 56.4543 52.8605C55.3363 52.8605 54.2968 53.3613 53.6008 54.2347C52.907 55.1081 52.6544 56.2317 52.9118 57.3152L53.7033 60.665C53.2527 60.6282 52.7998 60.6887 52.3683 60.8335C50.7615 61.3663 49.7817 62.9635 50.0416 64.6508L52.4398 78.3777C52.4398 83.7935 53.3934 87.8007 54.1944 90.2072C54.6497 91.5801 54.881 93.0242 54.881 94.4992C54.881 95.7831 54.7021 97.0612 54.3469 98.2952L52.4874 104.777C52.3825 105.143 52.4564 105.537 52.6853 105.842C52.9165 106.146 53.2765 106.325 53.6603 106.325H75.6307C76.0241 106.325 76.3912 106.138 76.6201 105.821C76.8513 105.504 76.9133 105.096 76.7893 104.726C76.7774 104.694 75.7571 101.556 76.7226 97.2878C77.948 96.298 82.2366 92.826 83.7767 91.4259C86.3228 89.1107 93.2981 81.9577 93.5934 81.654C94.0584 81.1781 94.0534 80.4186 93.5814 79.9487Z" fill="black"/>
</g>
</svg>
