<svg width="48" height="48" viewBox="0 0 48 48" fill="none" xmlns="http://www.w3.org/2000/svg">
<path d="M44.8396 12.2116C44.1977 4.11647 35.1057 4.94306 35.1057 4.94306C31.268 -1.82164 25.273 3.07816 25.273 3.07816C20.6674 -3.55164 14.8927 2.59186 14.8927 2.59186C4.93616 1.51826 5.32206 9.65827 5.32206 9.65827C5.08776 12.2459 6.72526 20.2515 6.72526 20.2515C5.24816 15.6374 2.04426 19.4675 2.04426 19.4675C-1.89434 25.5453 1.07046 28.8722 1.07046 28.8722C6.40006 35.1185 17.7581 42.615 17.7581 42.615C21.8707 44.971 20.1312 47.0718 20.1312 47.0718L45.0068 42.9616L45.5787 38.2443C49.3603 26.8077 44.8396 12.2116 44.8396 12.2116Z" fill="white"/>
</svg>
