<svg width="151" height="154" viewBox="0 0 151 154" fill="none" xmlns="http://www.w3.org/2000/svg">
<g id="lizard-new">
<g id="border-group">
<path id="border" d="M75.5 148C115.541 148 148 114.869 148 74C148 33.1309 115.541 0 75.5 0C35.4594 0 3 33.1309 3 74C3 114.869 35.4594 148 75.5 148Z" fill="#0075FF"/>
<path id="border-shade" d="M79 141C112.966 141 140.5 113.018 140.5 78.5C140.5 43.9822 112.966 16 79 16C45.0345 16 17.5 43.9822 17.5 78.5C17.5 113.018 45.0345 141 79 141Z" fill="#0554B1"/>
</g>
<g id="background-group">
<path id="background-shade" d="M75.5 132C107.533 132 133.5 106.033 133.5 74C133.5 41.9675 107.533 16 75.5 16C43.4675 16 17.5 41.9675 17.5 74C17.5 106.033 43.4675 132 75.5 132Z" fill="#B7B7B7"/>
<path id="background" d="M71.5 132C101.323 132 125.5 107.376 125.5 77C125.5 46.6243 101.323 22 71.5 22C41.6766 22 17.5 46.6243 17.5 77C17.5 107.376 41.6766 132 71.5 132Z" fill="#DADADA"/>
</g>
<path id="Vector" fill-rule="evenodd" clip-rule="evenodd" d="M98.4556 44.6751C96.0648 43.4612 92.9701 43.8944 89.7413 45.8942C87.188 47.4758 84.8441 49.878 83.6245 52.1633C81.2954 56.5272 82.2087 60.3751 82.7965 61.9997C81.9928 64.5526 80.8833 66.674 79.4723 68.3615C78.3349 66.9362 77.7004 65.1406 77.7004 63.2624V63.1709L80.6897 60.0854C81.0091 59.7556 81.836 58.4561 80.6896 57.2727C79.9372 56.4962 78.7171 56.4962 77.9647 57.2727L77.7002 57.5458V56.9247C77.7002 55.8265 76.8375 54.936 75.7734 54.936C74.7094 54.936 73.8467 55.8265 73.8467 56.9247V57.5458L73.5822 57.2727C72.8298 56.4962 71.6097 56.4962 70.8573 57.2727C70.1048 58.0493 70.1048 59.3086 70.8573 60.0853L73.8468 63.1706V63.2622C73.8468 66.1039 74.8166 68.8204 76.5552 70.964C73.433 72.9967 69.3882 73.6852 64.4434 73.0155C62.6595 72.7737 60.8583 72.7436 59.0927 72.9202C56.8784 70.6855 53.8436 69.4175 50.647 69.4175H50.557L47.5248 66.4349C46.7617 65.6843 45.5241 65.6843 44.7609 66.4349C43.9978 67.1856 43.9978 68.4029 44.7609 69.1537L45.0292 69.4176H44.419C43.3397 69.4176 42.4647 70.2783 42.4647 71.34C42.4647 72.4016 43.3397 73.262 44.419 73.262H45.0293L44.7609 73.5261C43.9978 74.2767 43.9978 75.494 44.7609 76.2448C45.1425 76.6202 45.6427 76.8079 46.1428 76.8079C46.643 76.8079 47.1432 76.6202 47.5249 76.2448L50.5571 73.2621H50.6471C51.8304 73.2621 52.9801 73.5233 54.0223 74.0087C54.163 73.9705 54.3041 73.9334 54.4455 73.8976C54.4023 73.9118 54.3591 73.9261 54.316 73.9406C51.0092 75.0514 48.0265 76.9802 45.6908 79.5181C41.6631 83.8941 40.1881 89.3517 41.4251 95.3012C42.3361 99.6819 44.4128 102.786 44.5007 102.916C44.8732 103.467 45.4883 103.783 46.131 103.783C46.288 103.783 46.4468 103.764 46.6038 103.726C47.4045 103.527 47.9972 102.849 48.0897 102.026C48.1 101.936 49.1684 92.9356 54.6862 87.8433C55.389 87.1948 58.0458 85.128 62.7305 85.7625C64.384 85.9865 65.9835 86.12 67.528 86.1634C68.375 87.8097 68.6362 89.7127 68.2397 91.5566L68.2205 91.6459L64.6027 93.9984C63.6921 94.5907 63.4281 95.8177 64.0134 96.7391C64.5986 97.6609 65.8111 97.9276 66.7219 97.3356L67.0419 97.1274L66.9117 97.7325C66.6817 98.8029 67.3525 99.8589 68.4101 100.092C68.5506 100.123 68.6906 100.138 68.8287 100.138C69.7306 100.138 70.5423 99.5039 70.7421 98.5761L70.8722 97.971L71.078 98.295C71.4524 98.8849 72.0838 99.2069 72.7286 99.2069C73.0913 99.2069 73.4584 99.1049 73.7864 98.8919C74.6968 98.2992 74.9608 97.0722 74.3755 96.1508L72.0508 92.4896L72.07 92.4002C72.5297 90.2628 72.3996 88.0717 71.7283 86.0477C77.0605 85.5828 81.6223 83.8849 85.3538 80.9665C85.7948 80.6216 86.2233 80.2605 86.639 79.8836C88.7649 81.7149 91.4987 82.7401 94.3627 82.7401H94.4524L97.4736 85.7226C97.8536 86.0982 98.3526 86.2858 98.8506 86.2858C99.3486 86.2858 99.8476 86.0981 100.228 85.7226C100.988 84.972 100.988 83.7547 100.228 83.004L99.9606 82.7399H100.569C101.644 82.7401 102.516 81.8793 102.516 80.8177C102.516 79.7561 101.644 78.8954 100.568 78.8954H99.9596L100.228 78.6315C100.988 77.8809 100.988 76.6636 100.228 75.9128C99.4666 75.162 98.2336 75.1622 97.4736 75.9128L94.4523 78.8953H94.3626C92.4859 78.8953 90.6926 78.2373 89.2837 77.0587C91.4341 74.3585 93.1187 71.0932 94.3177 67.2941C97.4136 66.1936 99.6076 64.3839 100.846 61.9075C103.039 57.5202 103.814 47.3954 98.4556 44.6751Z" fill="black"/>
</g>
</svg>
