<svg width="116" height="115" viewBox="0 0 116 115" fill="none" xmlns="http://www.w3.org/2000/svg">
<g id="ROCKPAPERSCISSORSLIZARDSPOCK" filter="url(#filter0_d_47_79)">
<path fill-rule="evenodd" clip-rule="evenodd" d="M29.264 19.4678C28.2746 19.9904 27.136 20.2518 25.8479 20.2518C24.5599 20.2518 23.426 19.9904 22.446 19.4678C21.466 18.9451 20.7053 18.2078 20.1639 17.2558C19.6226 16.3038 19.352 15.1931 19.352 13.9238V6.47578C19.352 5.22511 19.6226 4.12378 20.1639 3.17178C20.7053 2.21978 21.466 1.48245 22.446 0.959781C23.426 0.437115 24.5599 0.175781 25.8479 0.175781C27.136 0.175781 28.2746 0.437115 29.264 0.959781C30.2533 1.48245 31.0186 2.21978 31.56 3.17178C32.1013 4.12378 32.372 5.22511 32.372 6.47578V13.9238C32.372 15.1931 32.1013 16.3038 31.56 17.2558C31.0186 18.2078 30.2533 18.9451 29.264 19.4678ZM8.09595 19.9998C8.18928 19.9998 8.26862 19.9671 8.33395 19.9018C8.39928 19.8364 8.43195 19.7571 8.43195 19.6638V12.0198C8.43195 11.9264 8.47862 11.8798 8.57195 11.8798H10.336C10.392 11.8798 10.4386 11.9171 10.476 11.9918L13.304 19.7198C13.36 19.9064 13.4906 19.9998 13.696 19.9998H17.112C17.3173 19.9998 17.42 19.9158 17.42 19.7478C17.42 19.6918 17.4106 19.6451 17.392 19.6078L14.2 11.5718C14.1626 11.4784 14.1906 11.4131 14.284 11.3758C15.236 10.9464 15.9733 10.2931 16.496 9.41578C17.0186 8.53845 17.28 7.50245 17.28 6.30778C17.28 5.15045 17.0466 4.12378 16.58 3.22778C16.1133 2.33178 15.4506 1.63645 14.592 1.14178C13.7333 0.647115 12.7533 0.399781 11.652 0.399781H4.81995C4.72662 0.399781 4.64728 0.432448 4.58195 0.497781C4.51662 0.563115 4.48395 0.642448 4.48395 0.735781V19.6638C4.48395 19.7571 4.51662 19.8364 4.58195 19.9018C4.64728 19.9671 4.72662 19.9998 4.81995 19.9998H8.09595ZM11.0079 8.85578H8.57195C8.47862 8.85578 8.43195 8.80911 8.43195 8.71578V3.92778C8.43195 3.83445 8.47862 3.78778 8.57195 3.78778H11.0079C11.6986 3.78778 12.2586 4.01645 12.688 4.47378C13.1173 4.93111 13.332 5.55178 13.332 6.33578C13.332 7.10111 13.1173 7.71245 12.688 8.16978C12.2586 8.62711 11.6986 8.85578 11.0079 8.85578ZM25.8479 16.8638C25.0826 16.8638 24.4666 16.6071 24 16.0938C23.5333 15.5804 23.2999 14.9131 23.2999 14.0918V6.36378C23.2999 5.52378 23.5333 4.84711 24 4.33378C24.4666 3.82045 25.0826 3.56378 25.8479 3.56378C26.632 3.56378 27.2573 3.82045 27.7239 4.33378C28.1906 4.84711 28.424 5.52378 28.424 6.36378V14.0918C28.424 14.9131 28.1906 15.5804 27.7239 16.0938C27.2573 16.6071 26.632 16.8638 25.8479 16.8638ZM46.694 17.3678C46.1619 18.2824 45.4106 18.9871 44.4399 19.4818C43.4693 19.9764 42.3493 20.2238 41.0799 20.2238C39.8106 20.2238 38.6906 19.9718 37.7199 19.4678C36.7493 18.9638 35.998 18.2451 35.466 17.3118C34.934 16.3784 34.6679 15.2958 34.6679 14.0638V6.27978C34.6679 5.06645 34.934 3.99778 35.466 3.07378C35.998 2.14978 36.7493 1.43578 37.7199 0.931781C38.6906 0.427781 39.8106 0.175781 41.0799 0.175781C42.3493 0.175781 43.4693 0.423115 44.4399 0.917781C45.4106 1.41245 46.1619 2.10778 46.694 3.00378C47.2259 3.89978 47.492 4.94512 47.492 6.13978V6.27978C47.492 6.37311 47.4593 6.45711 47.394 6.53178C47.3286 6.60645 47.2493 6.64378 47.1559 6.64378L43.88 6.78378C43.6559 6.78378 43.5439 6.68111 43.5439 6.47578V6.11178C43.5439 5.34645 43.32 4.73045 42.8719 4.26378C42.424 3.79711 41.8266 3.56378 41.0799 3.56378C40.3333 3.56378 39.736 3.79711 39.2879 4.26378C38.84 4.73045 38.616 5.34645 38.616 6.11178V14.3158C38.616 15.0811 38.84 15.6924 39.2879 16.1498C39.736 16.6071 40.3333 16.8358 41.0799 16.8358C41.8266 16.8358 42.424 16.6071 42.8719 16.1498C43.32 15.6924 43.5439 15.0811 43.5439 14.3158V13.9518C43.5439 13.7464 43.6559 13.6438 43.88 13.6438L47.1559 13.7838C47.2493 13.7838 47.3286 13.8164 47.394 13.8818C47.4593 13.9471 47.492 14.0264 47.492 14.1198V14.2038C47.492 15.3984 47.2259 16.4531 46.694 17.3678ZM53.624 19.9998C53.7173 19.9998 53.7966 19.9671 53.8619 19.9018C53.9273 19.8364 53.96 19.7571 53.96 19.6638V14.0638C53.96 14.0264 53.9786 13.9704 54.016 13.8958L55.276 12.0758C55.3133 12.0198 55.3506 11.9918 55.388 11.9918C55.4253 11.9918 55.4533 12.0198 55.472 12.0758L59.448 19.7478C59.5413 19.9158 59.672 19.9998 59.84 19.9998H63.424C63.6293 19.9998 63.732 19.9251 63.732 19.7758C63.732 19.7384 63.7133 19.6824 63.6759 19.6078L58.188 9.02378C58.1693 8.94911 58.1693 8.88378 58.188 8.82778L63.368 0.791781C63.4426 0.679781 63.4566 0.586448 63.41 0.511781C63.3633 0.437115 63.2746 0.399781 63.144 0.399781H59.532C59.364 0.399781 59.2333 0.474448 59.14 0.623781L54.128 8.23978C54.1093 8.29578 54.0766 8.31445 54.03 8.29578C53.9833 8.27711 53.96 8.23978 53.96 8.18378V0.735781C53.96 0.642448 53.9273 0.563115 53.8619 0.497781C53.7966 0.432448 53.7173 0.399781 53.624 0.399781H50.3479C50.2546 0.399781 50.1753 0.432448 50.11 0.497781C50.0446 0.563115 50.012 0.642448 50.012 0.735781V19.6638C50.012 19.7571 50.0446 19.8364 50.11 19.9018C50.1753 19.9671 50.2546 19.9998 50.3479 19.9998H53.624ZM8.24995 41.9018C8.18462 41.9671 8.10528 41.9998 8.01195 41.9998H4.73595C4.64262 41.9998 4.56328 41.9671 4.49795 41.9018C4.43262 41.8364 4.39995 41.7571 4.39995 41.6638V22.7078C4.39995 22.6144 4.43262 22.5351 4.49795 22.4698C4.56328 22.4044 4.64262 22.3718 4.73595 22.3718H11.512C12.632 22.3718 13.6259 22.6238 14.4939 23.1278C15.3619 23.6318 16.0339 24.3411 16.5099 25.2558C16.9859 26.1704 17.224 27.2158 17.224 28.3918C17.224 29.5491 16.9859 30.5711 16.5099 31.4578C16.0339 32.3444 15.3619 33.0304 14.4939 33.5158C13.6259 34.0011 12.632 34.2438 11.512 34.2438H8.48795C8.39462 34.2438 8.34795 34.2904 8.34795 34.3838V41.6638C8.34795 41.7571 8.31528 41.8364 8.24995 41.9018ZM10.8679 31.1078H8.48795C8.39462 31.1078 8.34795 31.0611 8.34795 30.9678V25.9278C8.34795 25.8344 8.39462 25.7878 8.48795 25.7878H10.8679C11.596 25.7878 12.1793 26.0304 12.618 26.5158C13.0566 27.0011 13.2759 27.6544 13.2759 28.4758C13.2759 29.2784 13.0566 29.9178 12.618 30.3938C12.1793 30.8698 11.596 31.1078 10.8679 31.1078ZM22.5159 41.7198C22.4599 41.9064 22.3386 41.9998 22.1519 41.9998H18.7639C18.5213 41.9998 18.4279 41.8784 18.4839 41.6358L23.5239 22.6798C23.58 22.4931 23.7106 22.3998 23.916 22.3998H27.9759C28.1813 22.3998 28.3119 22.4931 28.368 22.6798L33.4079 41.6358L33.4359 41.7478C33.4359 41.9158 33.3333 41.9998 33.1279 41.9998H29.7119C29.5066 41.9998 29.3759 41.9064 29.32 41.7198L28.6759 38.9758C28.6573 38.9011 28.6106 38.8638 28.5359 38.8638H23.2999C23.2253 38.8638 23.1786 38.9011 23.16 38.9758L22.5159 41.7198ZM27.7519 35.8118H24.056C24.0186 35.8118 23.9813 35.7978 23.9439 35.7698C23.9066 35.7418 23.8973 35.6998 23.9159 35.6438L25.792 27.5238C25.8106 27.4491 25.8386 27.4118 25.8759 27.4118C25.9133 27.4118 25.9413 27.4491 25.9599 27.5238L27.8919 35.6438C27.9106 35.6998 27.9013 35.7418 27.8639 35.7698C27.8266 35.7978 27.7893 35.8118 27.7519 35.8118ZM39.2739 41.9018C39.2086 41.9671 39.1293 41.9998 39.0359 41.9998H35.76C35.6666 41.9998 35.5873 41.9671 35.5219 41.9018C35.4566 41.8364 35.424 41.7571 35.424 41.6638V22.7078C35.424 22.6144 35.4566 22.5351 35.5219 22.4698C35.5873 22.4044 35.6666 22.3718 35.76 22.3718H42.5359C43.6559 22.3718 44.65 22.6238 45.518 23.1278C46.3859 23.6318 47.0579 24.3411 47.534 25.2558C48.0099 26.1704 48.248 27.2158 48.248 28.3918C48.248 29.5491 48.0099 30.5711 47.534 31.4578C47.0579 32.3444 46.3859 33.0304 45.518 33.5158C44.65 34.0011 43.6559 34.2438 42.5359 34.2438H39.512C39.4186 34.2438 39.3719 34.2904 39.3719 34.3838V41.6638C39.3719 41.7571 39.3393 41.8364 39.2739 41.9018ZM41.892 31.1078H39.512C39.4186 31.1078 39.372 31.0611 39.372 30.9678V25.9278C39.372 25.8344 39.4186 25.7878 39.512 25.7878H41.892C42.62 25.7878 43.2033 26.0304 43.642 26.5158C44.0806 27.0011 44.3 27.6544 44.3 28.4758C44.3 29.2784 44.0806 29.9178 43.642 30.3938C43.2033 30.8698 42.62 31.1078 41.892 31.1078ZM62.2059 41.9018C62.1406 41.9671 62.0613 41.9998 61.9679 41.9998H50.7119C50.6186 41.9998 50.5393 41.9671 50.4739 41.9018C50.4086 41.8364 50.3759 41.7571 50.3759 41.6638V22.7358C50.3759 22.6424 50.4086 22.5631 50.4739 22.4978C50.5393 22.4324 50.6186 22.3998 50.7119 22.3998H61.9679C62.0613 22.3998 62.1406 22.4324 62.2059 22.4978C62.2713 22.5631 62.304 22.6424 62.304 22.7358V25.4518C62.304 25.5451 62.2713 25.6244 62.2059 25.6898C62.1406 25.7551 62.0613 25.7878 61.9679 25.7878H54.464C54.3706 25.7878 54.324 25.8344 54.324 25.9278V30.2958C54.324 30.3891 54.3706 30.4358 54.464 30.4358H59.1399C59.2333 30.4358 59.3126 30.4684 59.3779 30.5338C59.4433 30.5991 59.476 30.6784 59.476 30.7718V33.4878C59.476 33.5811 59.4433 33.6604 59.3779 33.7258C59.3126 33.7911 59.2333 33.8238 59.1399 33.8238H54.464C54.3706 33.8238 54.324 33.8704 54.324 33.9638V38.4718C54.324 38.5651 54.3706 38.6118 54.464 38.6118H61.9679C62.0613 38.6118 62.1406 38.6444 62.2059 38.7098C62.2713 38.7751 62.304 38.8545 62.304 38.9478V41.6638C62.304 41.7571 62.2713 41.8364 62.2059 41.9018ZM68.296 41.9998C68.3893 41.9998 68.4686 41.9671 68.534 41.9018C68.5993 41.8364 68.632 41.7571 68.632 41.6638V34.0198C68.632 33.9264 68.6786 33.8798 68.7719 33.8798H70.5359C70.5919 33.8798 70.6386 33.9171 70.6759 33.9918L73.504 41.7198C73.56 41.9064 73.6906 41.9998 73.896 41.9998H77.312C77.5173 41.9998 77.6199 41.9158 77.6199 41.7478C77.6199 41.6918 77.6106 41.6451 77.5919 41.6078L74.3999 33.5718C74.3626 33.4784 74.3906 33.4131 74.4839 33.3758C75.436 32.9464 76.1733 32.2931 76.6959 31.4158C77.2186 30.5384 77.4799 29.5024 77.4799 28.3078C77.4799 27.1504 77.2466 26.1238 76.7799 25.2278C76.3133 24.3318 75.6506 23.6364 74.7919 23.1418C73.9333 22.6471 72.9533 22.3998 71.852 22.3998H65.0199C64.9266 22.3998 64.8473 22.4324 64.7819 22.4978C64.7166 22.5631 64.6839 22.6424 64.6839 22.7358V41.6638C64.6839 41.7571 64.7166 41.8364 64.7819 41.9018C64.8473 41.9671 64.9266 41.9998 65.0199 41.9998H68.296ZM68.7719 30.8558H71.2079C71.8986 30.8558 72.4586 30.6271 72.8879 30.1698C73.3173 29.7124 73.532 29.1011 73.532 28.3358C73.532 27.5518 73.3173 26.9311 72.8879 26.4738C72.4586 26.0164 71.8986 25.7878 71.2079 25.7878H68.7719C68.6786 25.7878 68.632 25.8344 68.632 25.9278V30.7158C68.632 30.8091 68.6786 30.8558 68.7719 30.8558ZM10.364 64.2238C12.268 64.2238 13.794 63.7244 14.9419 62.7258C16.0899 61.7271 16.6639 60.3784 16.6639 58.6798C16.6639 57.7278 16.4586 56.9158 16.0479 56.2438C15.6373 55.5718 15.1286 55.0164 14.5219 54.5778C13.9153 54.1391 13.0706 53.6211 11.988 53.0238L11.4 52.6878C10.4479 52.2211 9.73862 51.8431 9.27195 51.5538C8.80528 51.2644 8.45995 50.9611 8.23595 50.6438C8.01195 50.3264 7.89995 49.9531 7.89995 49.5238C7.89995 48.9078 8.09128 48.4271 8.47395 48.0818C8.85662 47.7364 9.38395 47.5638 10.056 47.5638C10.8586 47.5638 11.4933 47.7878 11.96 48.2358C12.4266 48.6838 12.66 49.2438 12.66 49.9158V50.4198C12.66 50.5131 12.6926 50.5924 12.7579 50.6578C12.8233 50.7231 12.9026 50.7558 12.9959 50.7558H16.216C16.3093 50.7558 16.3886 50.7231 16.4539 50.6578C16.5193 50.5924 16.552 50.5131 16.552 50.4198V49.8598C16.552 48.7398 16.2813 47.7504 15.74 46.8918C15.1986 46.0331 14.4426 45.3658 13.472 44.8898C12.5013 44.4138 11.3906 44.1758 10.14 44.1758C8.94528 44.1758 7.88128 44.3951 6.94795 44.8338C6.01462 45.2724 5.29128 45.8978 4.77795 46.7098C4.26462 47.5218 4.00795 48.4691 4.00795 49.5518C4.00795 50.6344 4.25995 51.5584 4.76395 52.3238C5.26795 53.0891 5.87462 53.7144 6.58395 54.1998C7.29328 54.6851 8.20795 55.2078 9.32795 55.7678C10.2426 56.2344 10.9193 56.6031 11.358 56.8738C11.7966 57.1444 12.1373 57.4338 12.38 57.7418C12.6226 58.0498 12.7439 58.4184 12.7439 58.8478C12.7439 59.4264 12.5526 59.9024 12.17 60.2758C11.7873 60.6491 11.232 60.8358 10.504 60.8358C9.68262 60.8358 9.02928 60.6164 8.54395 60.1778C8.05862 59.7391 7.81595 59.1931 7.81595 58.5398V58.0078C7.81595 57.9144 7.78328 57.8351 7.71795 57.7698C7.65262 57.7044 7.57328 57.6718 7.47995 57.6718H4.25995C4.16662 57.6718 4.08728 57.7044 4.02195 57.7698C3.95662 57.8351 3.92395 57.9144 3.92395 58.0078V58.7358C3.92395 59.8184 4.18995 60.7751 4.72195 61.6058C5.25395 62.4364 6.00528 63.0804 6.97595 63.5378C7.94662 63.9951 9.07595 64.2238 10.364 64.2238ZM30.734 61.3678C30.202 62.2824 29.4506 62.9871 28.4799 63.4818C27.5093 63.9764 26.3893 64.2238 25.12 64.2238C23.8506 64.2238 22.7306 63.9718 21.76 63.4678C20.7893 62.9638 20.038 62.2451 19.506 61.3118C18.974 60.3784 18.708 59.2958 18.708 58.0638V50.2798C18.708 49.0664 18.974 47.9978 19.506 47.0738C20.038 46.1498 20.7893 45.4358 21.76 44.9318C22.7306 44.4278 23.8506 44.1758 25.12 44.1758C26.3893 44.1758 27.5093 44.4231 28.4799 44.9178C29.4506 45.4124 30.202 46.1078 30.734 47.0038C31.266 47.8998 31.532 48.9451 31.532 50.1398V50.2798C31.532 50.3731 31.4993 50.4571 31.434 50.5318C31.3686 50.6064 31.2893 50.6438 31.1959 50.6438L27.92 50.7838C27.6959 50.7838 27.584 50.6811 27.584 50.4758V50.1118C27.584 49.3464 27.36 48.7304 26.912 48.2638C26.464 47.7971 25.8666 47.5638 25.12 47.5638C24.3733 47.5638 23.776 47.7971 23.3279 48.2638C22.8799 48.7304 22.656 49.3464 22.656 50.1118V58.3158C22.656 59.0811 22.8799 59.6924 23.3279 60.1498C23.776 60.6071 24.3733 60.8358 25.12 60.8358C25.8666 60.8358 26.464 60.6071 26.912 60.1498C27.36 59.6924 27.584 59.0811 27.584 58.3158V57.9518C27.584 57.7464 27.6959 57.6438 27.92 57.6438L31.1959 57.7838C31.2893 57.7838 31.3686 57.8164 31.434 57.8818C31.4993 57.9471 31.532 58.0264 31.532 58.1198V58.2038C31.532 59.3984 31.266 60.4531 30.734 61.3678ZM37.664 63.9998C37.7573 63.9998 37.8366 63.9671 37.902 63.9018C37.9673 63.8364 38 63.7571 38 63.6638V44.7358C38 44.6424 37.9673 44.5631 37.902 44.4978C37.8366 44.4324 37.7573 44.3998 37.664 44.3998H34.388C34.2946 44.3998 34.2153 44.4324 34.15 44.4978C34.0846 44.5631 34.052 44.6424 34.052 44.7358V63.6638C34.052 63.7571 34.0846 63.8364 34.15 63.9018C34.2153 63.9671 34.2946 63.9998 34.388 63.9998H37.664ZM51.3979 62.7258C50.25 63.7244 48.724 64.2238 46.82 64.2238C45.532 64.2238 44.4026 63.9951 43.432 63.5378C42.4613 63.0804 41.71 62.4364 41.178 61.6058C40.646 60.7751 40.38 59.8184 40.38 58.7358V58.0078C40.38 57.9144 40.4126 57.8351 40.478 57.7698C40.5433 57.7044 40.6226 57.6718 40.716 57.6718H43.936C44.0293 57.6718 44.1086 57.7044 44.174 57.7698C44.2393 57.8351 44.2719 57.9144 44.2719 58.0078V58.5398C44.2719 59.1931 44.5146 59.7391 45 60.1778C45.4853 60.6164 46.1386 60.8358 46.96 60.8358C47.688 60.8358 48.2433 60.6491 48.626 60.2758C49.0086 59.9024 49.2 59.4264 49.2 58.8478C49.2 58.4184 49.0786 58.0498 48.836 57.7418C48.5933 57.4338 48.2526 57.1444 47.8139 56.8738C47.3753 56.6031 46.6986 56.2344 45.784 55.7678C44.664 55.2078 43.7493 54.6851 43.04 54.1998C42.3306 53.7144 41.724 53.0891 41.22 52.3238C40.716 51.5584 40.464 50.6344 40.464 49.5518C40.464 48.4691 40.7206 47.5218 41.234 46.7098C41.7473 45.8978 42.4706 45.2724 43.4039 44.8338C44.3373 44.3951 45.4013 44.1758 46.596 44.1758C47.8466 44.1758 48.9573 44.4138 49.928 44.8898C50.8986 45.3658 51.6546 46.0331 52.196 46.8918C52.7373 47.7504 53.0079 48.7398 53.0079 49.8598V50.4198C53.0079 50.5131 52.9753 50.5924 52.91 50.6578C52.8446 50.7231 52.7653 50.7558 52.672 50.7558H49.452C49.3586 50.7558 49.2793 50.7231 49.214 50.6578C49.1486 50.5924 49.116 50.5131 49.116 50.4198V49.9158C49.116 49.2438 48.8826 48.6838 48.416 48.2358C47.9493 47.7878 47.3146 47.5638 46.512 47.5638C45.84 47.5638 45.3126 47.7364 44.93 48.0818C44.5473 48.4271 44.356 48.9078 44.356 49.5238C44.356 49.9531 44.468 50.3264 44.692 50.6438C44.916 50.9611 45.2613 51.2644 45.728 51.5538C46.1946 51.8431 46.9039 52.2211 47.8559 52.6878L48.444 53.0238C49.5266 53.6211 50.3713 54.1391 50.978 54.5778C51.5846 55.0164 52.0933 55.5718 52.504 56.2438C52.9146 56.9158 53.1199 57.7278 53.1199 58.6798C53.1199 60.3784 52.546 61.7271 51.3979 62.7258ZM61.3799 64.2238C63.284 64.2238 64.8099 63.7244 65.9579 62.7258C67.1059 61.7271 67.6799 60.3784 67.6799 58.6798C67.6799 57.7278 67.4746 56.9158 67.0639 56.2438C66.6533 55.5718 66.1446 55.0164 65.5379 54.5778C64.9313 54.1391 64.0866 53.6211 63.0039 53.0238L62.4159 52.6878C61.4639 52.2211 60.7546 51.8431 60.2879 51.5538C59.8213 51.2644 59.4759 50.9611 59.2519 50.6438C59.028 50.3264 58.916 49.9531 58.916 49.5238C58.916 48.9078 59.1073 48.4271 59.4899 48.0818C59.8726 47.7364 60.3999 47.5638 61.0719 47.5638C61.8746 47.5638 62.5093 47.7878 62.9759 48.2358C63.4426 48.6838 63.6759 49.2438 63.6759 49.9158V50.4198C63.6759 50.5131 63.7086 50.5924 63.7739 50.6578C63.8393 50.7231 63.9186 50.7558 64.0119 50.7558H67.2319C67.3253 50.7558 67.4046 50.7231 67.4699 50.6578C67.5353 50.5924 67.5679 50.5131 67.5679 50.4198V49.8598C67.5679 48.7398 67.2973 47.7504 66.756 46.8918C66.2146 46.0331 65.4586 45.3658 64.4879 44.8898C63.5173 44.4138 62.4066 44.1758 61.1559 44.1758C59.9613 44.1758 58.8973 44.3951 57.9639 44.8338C57.0306 45.2724 56.3073 45.8978 55.7939 46.7098C55.2806 47.5218 55.0239 48.4691 55.0239 49.5518C55.0239 50.6344 55.2759 51.5584 55.7799 52.3238C56.284 53.0891 56.8906 53.7144 57.5999 54.1998C58.3093 54.6851 59.2239 55.2078 60.3439 55.7678C61.2586 56.2344 61.9353 56.6031 62.3739 56.8738C62.8126 57.1444 63.1533 57.4338 63.396 57.7418C63.6386 58.0498 63.7599 58.4184 63.7599 58.8478C63.7599 59.4264 63.5686 59.9024 63.186 60.2758C62.8033 60.6491 62.2479 60.8358 61.52 60.8358C60.6986 60.8358 60.0453 60.6164 59.5599 60.1778C59.0746 59.7391 58.8319 59.1931 58.8319 58.5398V58.0078C58.8319 57.9144 58.7993 57.8351 58.7339 57.7698C58.6686 57.7044 58.5893 57.6718 58.4959 57.6718H55.2759C55.1826 57.6718 55.1033 57.7044 55.0379 57.7698C54.9726 57.8351 54.9399 57.9144 54.9399 58.0078V58.7358C54.9399 59.8184 55.2059 60.7751 55.7379 61.6058C56.27 62.4364 57.0213 63.0804 57.992 63.5378C58.9626 63.9951 60.0919 64.2238 61.3799 64.2238ZM79.636 63.4678C78.6466 63.9904 77.5079 64.2518 76.22 64.2518C74.932 64.2518 73.798 63.9904 72.818 63.4678C71.838 62.9451 71.0773 62.2078 70.5359 61.2558C69.9946 60.3038 69.724 59.1931 69.724 57.9238V50.4758C69.724 49.2251 69.9946 48.1238 70.5359 47.1718C71.0773 46.2198 71.838 45.4824 72.818 44.9598C73.798 44.4371 74.932 44.1758 76.22 44.1758C77.5079 44.1758 78.6466 44.4371 79.636 44.9598C80.6253 45.4824 81.3906 46.2198 81.932 47.1718C82.4733 48.1238 82.744 49.2251 82.744 50.4758V57.9238C82.744 59.1931 82.4733 60.3038 81.932 61.2558C81.3906 62.2078 80.6253 62.9451 79.636 63.4678ZM76.2199 60.8638C75.4546 60.8638 74.8386 60.6071 74.3719 60.0938C73.9053 59.5804 73.672 58.9131 73.672 58.0918V50.3638C73.672 49.5238 73.9053 48.8471 74.3719 48.3338C74.8386 47.8204 75.4546 47.5638 76.2199 47.5638C77.004 47.5638 77.6293 47.8204 78.0959 48.3338C78.5626 48.8471 78.796 49.5238 78.796 50.3638V58.0918C78.796 58.9131 78.5626 59.5804 78.0959 60.0938C77.6293 60.6071 77.004 60.8638 76.2199 60.8638ZM89.226 63.9018C89.1606 63.9671 89.0813 63.9998 88.988 63.9998H85.712C85.6186 63.9998 85.5393 63.9671 85.474 63.9018C85.4086 63.8364 85.376 63.7571 85.376 63.6638V44.7358C85.376 44.6424 85.4086 44.5631 85.474 44.4978C85.5393 44.4324 85.6186 44.3998 85.712 44.3998H92.544C93.6453 44.3998 94.6253 44.6471 95.484 45.1418C96.3426 45.6364 97.0053 46.3318 97.472 47.2278C97.9386 48.1238 98.172 49.1504 98.172 50.3078C98.172 51.5024 97.9106 52.5384 97.388 53.4158C96.8653 54.2931 96.128 54.9464 95.176 55.3758C95.0826 55.4131 95.0546 55.4784 95.0919 55.5718L98.284 63.6078C98.3026 63.6451 98.312 63.6918 98.312 63.7478C98.312 63.9158 98.2093 63.9998 98.004 63.9998H94.588C94.3826 63.9998 94.252 63.9064 94.196 63.7198L91.368 55.9918C91.3306 55.9171 91.284 55.8798 91.228 55.8798H89.464C89.3706 55.8798 89.324 55.9264 89.324 56.0198V63.6638C89.324 63.7571 89.2913 63.8364 89.226 63.9018ZM91.8999 52.8558H89.464C89.3706 52.8558 89.324 52.8091 89.324 52.7158V47.9278C89.324 47.8344 89.3706 47.7878 89.464 47.7878H91.8999C92.5906 47.7878 93.1506 48.0164 93.5799 48.4738C94.0093 48.9311 94.224 49.5518 94.224 50.3358C94.224 51.1011 94.0093 51.7124 93.5799 52.1698C93.1506 52.6271 92.5906 52.8558 91.8999 52.8558ZM111.038 62.7258C109.89 63.7244 108.364 64.2238 106.46 64.2238C105.172 64.2238 104.043 63.9951 103.072 63.5378C102.101 63.0804 101.35 62.4364 100.818 61.6058C100.286 60.7751 100.02 59.8184 100.02 58.7358V58.0078C100.02 57.9144 100.053 57.8351 100.118 57.7698C100.183 57.7044 100.263 57.6718 100.356 57.6718H103.576C103.669 57.6718 103.749 57.7044 103.814 57.7698C103.879 57.8351 103.912 57.9144 103.912 58.0078V58.5398C103.912 59.1931 104.155 59.7391 104.64 60.1778C105.125 60.6164 105.779 60.8358 106.6 60.8358C107.328 60.8358 107.883 60.6491 108.266 60.2758C108.649 59.9024 108.84 59.4264 108.84 58.8478C108.84 58.4184 108.719 58.0498 108.476 57.7418C108.233 57.4338 107.893 57.1444 107.454 56.8738C107.015 56.6031 106.339 56.2344 105.424 55.7678C104.304 55.2078 103.389 54.6851 102.68 54.1998C101.971 53.7144 101.364 53.0891 100.86 52.3238C100.356 51.5584 100.104 50.6344 100.104 49.5518C100.104 48.4691 100.361 47.5218 100.874 46.7098C101.387 45.8978 102.111 45.2724 103.044 44.8338C103.977 44.3951 105.041 44.1758 106.236 44.1758C107.487 44.1758 108.597 44.4138 109.568 44.8898C110.539 45.3658 111.295 46.0331 111.836 46.8918C112.377 47.7504 112.648 48.7398 112.648 49.8598V50.4198C112.648 50.5131 112.615 50.5924 112.55 50.6578C112.485 50.7231 112.405 50.7558 112.312 50.7558H109.092C108.999 50.7558 108.919 50.7231 108.854 50.6578C108.789 50.5924 108.756 50.5131 108.756 50.4198V49.9158C108.756 49.2438 108.523 48.6838 108.056 48.2358C107.589 47.7878 106.955 47.5638 106.152 47.5638C105.48 47.5638 104.953 47.7364 104.57 48.0818C104.187 48.4271 103.996 48.9078 103.996 49.5238C103.996 49.9531 104.108 50.3264 104.332 50.6438C104.556 50.9611 104.901 51.2644 105.368 51.5538C105.835 51.8431 106.544 52.2211 107.496 52.6878L108.084 53.0238C109.167 53.6211 110.011 54.1391 110.618 54.5778C111.225 55.0164 111.733 55.5718 112.144 56.2438C112.555 56.9158 112.76 57.7278 112.76 58.6798C112.76 60.3784 112.186 61.7271 111.038 62.7258ZM16.076 85.9998C16.1693 85.9998 16.2486 85.9671 16.314 85.9018C16.3793 85.8364 16.412 85.7571 16.412 85.6638V82.9478C16.412 82.8544 16.3793 82.7751 16.314 82.7098C16.2486 82.6444 16.1693 82.6118 16.076 82.6118H8.57195C8.47862 82.6118 8.43195 82.5651 8.43195 82.4718V66.7358C8.43195 66.6424 8.39928 66.5631 8.33395 66.4978C8.26862 66.4324 8.18928 66.3998 8.09595 66.3998H4.81995C4.72662 66.3998 4.64728 66.4324 4.58195 66.4978C4.51662 66.5631 4.48395 66.6424 4.48395 66.7358V85.6638C4.48395 85.7571 4.51662 85.8364 4.58195 85.9018C4.64728 85.9671 4.72662 85.9998 4.81995 85.9998H16.076ZM22.306 85.9018C22.2406 85.9671 22.1613 85.9998 22.0679 85.9998H18.792C18.6986 85.9998 18.6193 85.9671 18.5539 85.9018C18.4886 85.8364 18.4559 85.7571 18.4559 85.6638V66.7358C18.4559 66.6424 18.4886 66.5631 18.5539 66.4978C18.6193 66.4324 18.6986 66.3998 18.792 66.3998H22.0679C22.1613 66.3998 22.2406 66.4324 22.306 66.4978C22.3713 66.5631 22.4039 66.6424 22.4039 66.7358V85.6638C22.4039 85.7571 22.3713 85.8364 22.306 85.9018ZM36.236 85.9998C36.3293 85.9998 36.4086 85.9671 36.4739 85.9018C36.5393 85.8364 36.5719 85.7571 36.5719 85.6638V82.9478C36.5719 82.8544 36.5393 82.7751 36.4739 82.7098C36.4086 82.6444 36.3293 82.6118 36.236 82.6118H29.0399C28.9279 82.6118 28.9 82.5558 28.9559 82.4438L36.4599 70.0958C36.5346 69.9651 36.5719 69.8251 36.5719 69.6758V66.7358C36.5719 66.6424 36.5393 66.5631 36.4739 66.4978C36.4086 66.4324 36.3293 66.3998 36.236 66.3998H24.924C24.8306 66.3998 24.7513 66.4324 24.6859 66.4978C24.6206 66.5631 24.5879 66.6424 24.5879 66.7358V69.4518C24.5879 69.5451 24.6206 69.6245 24.6859 69.6898C24.7513 69.7551 24.8306 69.7878 24.924 69.7878H32.1199C32.232 69.7878 32.26 69.8438 32.2039 69.9558L24.6999 82.3038C24.6253 82.4344 24.5879 82.5744 24.5879 82.7238V85.6638C24.5879 85.7571 24.6206 85.8364 24.6859 85.9018C24.7513 85.9671 24.8306 85.9998 24.924 85.9998H36.236ZM42.0879 85.7198C42.0319 85.9064 41.9106 85.9998 41.7239 85.9998H38.3359C38.0933 85.9998 38 85.8784 38.056 85.6358L43.0959 66.6798C43.152 66.4931 43.2826 66.3998 43.4879 66.3998H47.548C47.7533 66.3998 47.8839 66.4931 47.9399 66.6798L52.9799 85.6358L53.0079 85.7478C53.0079 85.9158 52.9053 85.9998 52.7 85.9998H49.284C49.0786 85.9998 48.9479 85.9064 48.8919 85.7198L48.2479 82.9758C48.2293 82.9011 48.1826 82.8638 48.1079 82.8638H42.8719C42.7973 82.8638 42.7506 82.9011 42.7319 82.9758L42.0879 85.7198ZM47.324 79.8118H43.628C43.5906 79.8118 43.5533 79.7978 43.516 79.7698C43.4786 79.7418 43.4693 79.6998 43.488 79.6438L45.364 71.5238C45.3826 71.4491 45.4106 71.4118 45.448 71.4118C45.4853 71.4118 45.5133 71.4491 45.532 71.5238L47.464 79.6438C47.4826 79.6998 47.4733 79.7418 47.436 79.7698C47.3986 79.7978 47.3613 79.8118 47.324 79.8118ZM58.9299 85.9018C58.8646 85.9671 58.7853 85.9998 58.6919 85.9998H55.4159C55.3226 85.9998 55.2433 85.9671 55.1779 85.9018C55.1126 85.8364 55.0799 85.7571 55.0799 85.6638V66.7358C55.0799 66.6424 55.1126 66.5631 55.1779 66.4978C55.2433 66.4324 55.3226 66.3998 55.4159 66.3998H62.2479C63.3493 66.3998 64.3293 66.6471 65.188 67.1418C66.0466 67.6364 66.7093 68.3318 67.1759 69.2278C67.6426 70.1238 67.8759 71.1504 67.8759 72.3078C67.8759 73.5024 67.6146 74.5384 67.0919 75.4158C66.5693 76.2931 65.8319 76.9464 64.8799 77.3758C64.7866 77.4131 64.7586 77.4784 64.7959 77.5718L67.9879 85.6078C68.0066 85.6451 68.0159 85.6918 68.0159 85.7478C68.0159 85.9158 67.9133 85.9998 67.7079 85.9998H64.2919C64.0866 85.9998 63.9559 85.9064 63.8999 85.7198L61.0719 77.9918C61.0346 77.9171 60.9879 77.8798 60.9319 77.8798H59.1679C59.0746 77.8798 59.0279 77.9264 59.0279 78.0198V85.6638C59.0279 85.7571 58.9953 85.8364 58.9299 85.9018ZM61.604 74.8558H59.1679C59.0746 74.8558 59.028 74.8091 59.028 74.7158V69.9278C59.028 69.8344 59.0746 69.7878 59.1679 69.7878H61.604C62.2946 69.7878 62.8546 70.0164 63.284 70.4738C63.7133 70.9311 63.928 71.5518 63.928 72.3358C63.928 73.1011 63.7133 73.7124 63.284 74.1698C62.8546 74.6271 62.2946 74.8558 61.604 74.8558ZM79.9579 85.2998C78.9966 85.7664 77.8906 85.9998 76.64 85.9998H70.6199C70.5266 85.9998 70.4473 85.9671 70.382 85.9018C70.3166 85.8364 70.284 85.7571 70.284 85.6638V66.7358C70.284 66.6424 70.3166 66.5631 70.382 66.4978C70.4473 66.4324 70.5266 66.3998 70.6199 66.3998H76.64C77.8906 66.3998 78.9966 66.6331 79.9579 67.0998C80.9193 67.5664 81.6613 68.2291 82.184 69.0878C82.7066 69.9464 82.9679 70.9451 82.9679 72.0838V80.3158C82.9679 81.4544 82.7066 82.4531 82.184 83.3118C81.6613 84.1704 80.9193 84.8331 79.9579 85.2998ZM74.3719 82.6118C74.2786 82.6118 74.2319 82.5651 74.2319 82.4718V69.9278C74.2319 69.8344 74.2786 69.7878 74.3719 69.7878H76.6679C77.3773 69.7878 77.9466 70.0351 78.3759 70.5298C78.8053 71.0244 79.02 71.6918 79.02 72.5318V79.8678C79.0013 80.6891 78.7773 81.3471 78.3479 81.8418C77.9186 82.3364 77.3586 82.5838 76.6679 82.5838L74.3719 82.6118ZM14.9419 106.726C13.794 107.724 12.268 108.224 10.364 108.224C9.07595 108.224 7.94662 107.995 6.97595 107.538C6.00528 107.08 5.25395 106.436 4.72195 105.606C4.18995 104.775 3.92395 103.818 3.92395 102.736V102.008C3.92395 101.914 3.95662 101.835 4.02195 101.77C4.08728 101.704 4.16662 101.672 4.25995 101.672H7.47995C7.57328 101.672 7.65262 101.704 7.71795 101.77C7.78328 101.835 7.81595 101.914 7.81595 102.008V102.54C7.81595 103.193 8.05862 103.739 8.54395 104.178C9.02928 104.616 9.68262 104.836 10.504 104.836C11.232 104.836 11.7873 104.649 12.17 104.276C12.5526 103.902 12.7439 103.426 12.7439 102.848C12.7439 102.418 12.6226 102.05 12.38 101.742C12.1373 101.434 11.7966 101.144 11.358 100.874C10.9193 100.603 10.2426 100.234 9.32795 99.7678C8.20795 99.2078 7.29328 98.6851 6.58395 98.1998C5.87462 97.7144 5.26795 97.0891 4.76395 96.3238C4.25995 95.5584 4.00795 94.6344 4.00795 93.5518C4.00795 92.4691 4.26462 91.5218 4.77795 90.7098C5.29128 89.8978 6.01462 89.2724 6.94795 88.8338C7.88128 88.3951 8.94528 88.1758 10.14 88.1758C11.3906 88.1758 12.5013 88.4138 13.472 88.8898C14.4426 89.3658 15.1986 90.0331 15.74 90.8918C16.2813 91.7505 16.552 92.7398 16.552 93.8598V94.4198C16.552 94.5131 16.5193 94.5924 16.4539 94.6578C16.3886 94.7231 16.3093 94.7558 16.216 94.7558H12.9959C12.9026 94.7558 12.8233 94.7231 12.7579 94.6578C12.6926 94.5924 12.66 94.5131 12.66 94.4198V93.9158C12.66 93.2438 12.4266 92.6838 11.96 92.2358C11.4933 91.7878 10.8586 91.5638 10.056 91.5638C9.38395 91.5638 8.85662 91.7365 8.47395 92.0818C8.09128 92.4271 7.89995 92.9078 7.89995 93.5238C7.89995 93.9531 8.01195 94.3264 8.23595 94.6438C8.45995 94.9611 8.80528 95.2645 9.27195 95.5538C9.73862 95.8431 10.4479 96.2211 11.4 96.6878L11.988 97.0238C13.0706 97.6211 13.9153 98.1391 14.5219 98.5778C15.1286 99.0164 15.6373 99.5718 16.0479 100.244C16.4586 100.916 16.6639 101.728 16.6639 102.68C16.6639 104.378 16.0899 105.727 14.9419 106.726ZM22.572 108C22.6653 108 22.7446 107.967 22.8099 107.902C22.8753 107.836 22.908 107.757 22.908 107.664V100.384C22.908 100.29 22.9546 100.244 23.048 100.244H26.072C27.1919 100.244 28.186 100.001 29.054 99.5158C29.9219 99.0304 30.594 98.3444 31.07 97.4578C31.5459 96.5711 31.784 95.5491 31.784 94.3918C31.784 93.2158 31.5459 92.1704 31.07 91.2558C30.594 90.3411 29.9219 89.6318 29.054 89.1278C28.186 88.6238 27.1919 88.3718 26.072 88.3718H19.296C19.2026 88.3718 19.1233 88.4044 19.058 88.4698C18.9926 88.5351 18.96 88.6144 18.96 88.7078V107.664C18.96 107.757 18.9926 107.836 19.058 107.902C19.1233 107.967 19.2026 108 19.296 108H22.572ZM23.0479 97.1078H25.4279C26.1559 97.1078 26.7393 96.8698 27.1779 96.3938C27.6166 95.9178 27.8359 95.2785 27.8359 94.4758C27.8359 93.6544 27.6166 93.0011 27.1779 92.5158C26.7393 92.0304 26.1559 91.7878 25.4279 91.7878H23.0479C22.9546 91.7878 22.9079 91.8344 22.9079 91.9278V96.9678C22.9079 97.0611 22.9546 97.1078 23.0479 97.1078ZM40.0719 108.252C41.36 108.252 42.4986 107.99 43.4879 107.468C44.4773 106.945 45.2426 106.208 45.784 105.256C46.3253 104.304 46.596 103.193 46.596 101.924V94.4758C46.596 93.2251 46.3253 92.1238 45.784 91.1718C45.2426 90.2198 44.4773 89.4824 43.4879 88.9598C42.4986 88.4371 41.36 88.1758 40.0719 88.1758C38.784 88.1758 37.65 88.4371 36.67 88.9598C35.69 89.4824 34.9293 90.2198 34.388 91.1718C33.8466 92.1238 33.576 93.2251 33.576 94.4758V101.924C33.576 103.193 33.8466 104.304 34.388 105.256C34.9293 106.208 35.69 106.945 36.67 107.468C37.65 107.99 38.784 108.252 40.0719 108.252ZM38.2239 104.094C38.6906 104.607 39.3066 104.864 40.0719 104.864C40.8559 104.864 41.4813 104.607 41.9479 104.094C42.4146 103.58 42.6479 102.913 42.6479 102.092V94.3638C42.6479 93.5238 42.4146 92.8471 41.9479 92.3338C41.4813 91.8204 40.8559 91.5638 40.0719 91.5638C39.3066 91.5638 38.6906 91.8204 38.2239 92.3338C37.7573 92.8471 37.5239 93.5238 37.5239 94.3638V102.092C37.5239 102.913 37.7573 103.58 38.2239 104.094ZM58.6639 107.482C59.6346 106.987 60.3859 106.282 60.9179 105.368C61.4499 104.453 61.716 103.398 61.716 102.204V102.12C61.716 102.026 61.6833 101.947 61.618 101.882C61.5526 101.816 61.4733 101.784 61.3799 101.784L58.104 101.644C57.8799 101.644 57.7679 101.746 57.7679 101.952V102.316C57.7679 103.081 57.5439 103.692 57.0959 104.15C56.6479 104.607 56.0506 104.836 55.3039 104.836C54.5573 104.836 53.9599 104.607 53.5119 104.15C53.0639 103.692 52.84 103.081 52.84 102.316V94.1118C52.84 93.3465 53.0639 92.7304 53.5119 92.2638C53.9599 91.7971 54.5573 91.5638 55.3039 91.5638C56.0506 91.5638 56.6479 91.7971 57.0959 92.2638C57.5439 92.7304 57.7679 93.3465 57.7679 94.1118V94.4758C57.7679 94.6811 57.8799 94.7838 58.104 94.7838L61.3799 94.6438C61.4733 94.6438 61.5526 94.6064 61.618 94.5318C61.6833 94.4571 61.716 94.3731 61.716 94.2798V94.1398C61.716 92.9451 61.4499 91.8998 60.9179 91.0038C60.3859 90.1078 59.6346 89.4124 58.6639 88.9178C57.6933 88.4231 56.5733 88.1758 55.3039 88.1758C54.0346 88.1758 52.9146 88.4278 51.9439 88.9318C50.9733 89.4358 50.222 90.1498 49.6899 91.0738C49.1579 91.9978 48.8919 93.0664 48.8919 94.2798V102.064C48.8919 103.296 49.1579 104.378 49.6899 105.312C50.222 106.245 50.9733 106.964 51.9439 107.468C52.9146 107.972 54.0346 108.224 55.3039 108.224C56.5733 108.224 57.6933 107.976 58.6639 107.482ZM68.086 107.902C68.0206 107.967 67.9413 108 67.8479 108H64.5719C64.4786 108 64.3993 107.967 64.334 107.902C64.2686 107.836 64.236 107.757 64.236 107.664V88.7358C64.236 88.6424 64.2686 88.5631 64.334 88.4978C64.3993 88.4324 64.4786 88.3998 64.5719 88.3998H67.8479C67.9413 88.3998 68.0206 88.4324 68.086 88.4978C68.1513 88.5631 68.184 88.6424 68.184 88.7358V96.1838C68.184 96.2398 68.2073 96.2771 68.254 96.2958C68.3006 96.3144 68.3333 96.2958 68.352 96.2398L73.364 88.6238C73.4573 88.4744 73.588 88.3998 73.756 88.3998H77.368C77.4986 88.3998 77.5873 88.4371 77.6339 88.5118C77.6806 88.5864 77.6666 88.6798 77.5919 88.7918L72.4119 96.8278C72.3933 96.8838 72.3933 96.9491 72.4119 97.0238L77.8999 107.608C77.9373 107.682 77.9559 107.738 77.9559 107.776C77.9559 107.925 77.8533 108 77.6479 108H74.0639C73.896 108 73.7653 107.916 73.672 107.748L69.696 100.076C69.6773 100.02 69.6493 99.9918 69.612 99.9918C69.5746 99.9918 69.5373 100.02 69.5 100.076L68.24 101.896C68.2026 101.97 68.184 102.026 68.184 102.064V107.664C68.184 107.757 68.1513 107.836 68.086 107.902Z" fill="url(#paint0_linear_47_79)"/>
</g>
<defs>
<filter id="filter0_d_47_79" x="0.92395" y="0.175781" width="114.836" height="114.076" filterUnits="userSpaceOnUse" color-interpolation-filters="sRGB">
<feFlood flood-opacity="0" result="BackgroundImageFix"/>
<feColorMatrix in="SourceAlpha" type="matrix" values="0 0 0 0 0 0 0 0 0 0 0 0 0 0 0 0 0 0 127 0" result="hardAlpha"/>
<feOffset dy="3"/>
<feGaussianBlur stdDeviation="1.5"/>
<feColorMatrix type="matrix" values="0 0 0 0 0 0 0 0 0 0 0 0 0 0 0 0 0 0 0.196706 0"/>
<feBlend mode="normal" in2="BackgroundImageFix" result="effect1_dropShadow_47_79"/>
<feBlend mode="normal" in="SourceGraphic" in2="effect1_dropShadow_47_79" result="shape"/>
</filter>
<linearGradient id="paint0_linear_47_79" x1="-14" y1="3.30555e-06" x2="185.5" y2="125.5" gradientUnits="userSpaceOnUse">
<stop offset="0.000817758" stop-color="#A5B9FD"/>
<stop offset="0.5" stop-color="#00A3FF" stop-opacity="0.95"/>
<stop offset="1" stop-color="#003AFF" stop-opacity="0"/>
</linearGradient>
</defs>
</svg>
