<svg width="151" height="154" viewBox="0 0 151 154" fill="none" xmlns="http://www.w3.org/2000/svg">
<g id="paper-new">
<g id="border-group">
<path id="border" d="M75.5 148C115.541 148 148 114.869 148 74C148 33.1309 115.541 0 75.5 0C35.4594 0 3 33.1309 3 74C3 114.869 35.4594 148 75.5 148Z" fill="#0075FF"/>
<path id="border-shade" d="M79 141C112.966 141 140.5 113.018 140.5 78.5C140.5 43.9822 112.966 16 79 16C45.0345 16 17.5 43.9822 17.5 78.5C17.5 113.018 45.0345 141 79 141Z" fill="#0554B1"/>
</g>
<g id="background-group">
<path id="background-shade" d="M75.5 132C107.533 132 133.5 106.033 133.5 74C133.5 41.9675 107.533 16 75.5 16C43.4675 16 17.5 41.9675 17.5 74C17.5 106.033 43.4675 132 75.5 132Z" fill="#B7B7B7"/>
<path id="background" d="M71.5 132C101.323 132 125.5 107.376 125.5 77C125.5 46.6243 101.323 22 71.5 22C41.6766 22 17.5 46.6243 17.5 77C17.5 107.376 41.6766 132 71.5 132Z" fill="#DADADA"/>
</g>
<path id="Vector" d="M94.5309 59.8313C94.1208 59.6746 93.6938 59.6067 93.2997 59.6341C92.7302 59.6737 92.2702 59.905 91.9978 60.2834C90.3929 62.5315 89.0785 66.7771 88.0186 70.1883C87.5321 71.7659 86.8791 73.877 86.4062 74.879C85.9129 72.0718 86.4701 61.7887 86.6862 57.8287L86.6897 57.7647C86.8396 55.0134 86.8597 54.5309 86.8269 54.3191C86.5888 52.8098 85.984 51.8192 85.0285 51.3758C84.0625 50.9261 82.808 51.125 81.4565 51.9382C80.779 52.3479 80.5916 53.7543 80.01 60.129L80.0079 60.157C79.6877 63.6592 78.9506 71.7229 78.0435 73.0658C77.0201 71.1869 75.6121 60.5118 75.0043 55.8911C74.579 52.6549 74.3313 50.7968 74.1649 50.2357C73.8143 49.06 72.3344 48.0596 70.869 48.0041C69.6493 47.9436 68.6485 48.564 68.1708 49.642C67.2773 50.6364 67.593 53.934 68.5807 61.7442C69.0508 65.4612 70.0213 73.1392 69.4105 74.0004C68.1928 73.8681 66.1022 69.0587 63.1961 59.7019C62.3808 57.0815 62.1284 56.2933 61.8779 55.9483C61.3843 54.7467 59.7066 53.8198 58.2024 53.9245C58.0739 53.9334 57.949 53.9501 57.8257 53.9736C57.0383 54.13 55.2415 54.8547 55.6245 58.1994C56.6855 62.8363 57.838 66.2408 58.9565 69.5453L58.9791 69.6115C59.6483 71.5908 60.2809 73.4609 60.8688 75.5364C62.2544 80.4366 61.7156 83.477 61.709 83.5112C61.663 83.8242 61.5663 84.0152 61.421 84.082C61.3687 84.1066 61.3017 84.1211 61.2261 84.1264C60.787 84.1569 60.1284 83.8663 59.7889 83.6768C59.0136 82.195 55.1531 75.1325 51.655 74.153L51.5294 74.1159L51.4022 74.1277C50.1192 74.2489 49.1758 74.7337 48.5993 75.5687C47.6857 76.8891 48.0638 78.5709 48.1556 78.9081L48.2072 79.0291C48.2357 79.0799 51.041 84.194 51.4751 86.573C51.8495 88.6125 53.7865 90.8231 55.3438 92.5991L55.408 92.6712C55.916 93.2524 56.3544 93.7547 56.7002 94.2196C61.2189 98.9326 68.3651 102.897 68.4233 102.928C69.3149 103.586 69.8108 104.222 69.8631 104.769C69.8963 105.128 69.7102 105.342 69.7037 105.349L69.5481 105.511L70.5359 106.471L89.3894 105.147L90.1932 101.464C92.6788 91.0616 92.1599 82.1921 92.1517 82.1329C92.1608 81.8065 92.8575 78.6507 93.4177 76.1009L93.4342 76.036C94.5509 70.9565 95.9398 64.6363 96.2061 62.2324C96.322 61.2046 95.6644 60.2604 94.5309 59.8313Z" fill="black"/>
</g>
</svg>
