<svg width="151" height="154" viewBox="0 0 151 154" fill="none" xmlns="http://www.w3.org/2000/svg">
<g id="scissors-new">
<g id="border-group">
<path id="border" d="M75.5 148C115.541 148 148 114.869 148 74C148 33.1309 115.541 0 75.5 0C35.4594 0 3 33.1309 3 74C3 114.869 35.4594 148 75.5 148Z" fill="#0075FF"/>
<path id="border-shade" d="M79 141C112.966 141 140.5 113.018 140.5 78.5C140.5 43.9822 112.966 16 79 16C45.0345 16 17.5 43.9822 17.5 78.5C17.5 113.018 45.0345 141 79 141Z" fill="#0554B1"/>
</g>
<g id="background-group">
<path id="background-shade" d="M75.5 132C107.533 132 133.5 106.033 133.5 74C133.5 41.9675 107.533 16 75.5 16C43.4675 16 17.5 41.9675 17.5 74C17.5 106.033 43.4675 132 75.5 132Z" fill="#B7B7B7"/>
<path id="background" d="M71.5 132C101.323 132 125.5 107.376 125.5 77C125.5 46.6243 101.323 22 71.5 22C41.6766 22 17.5 46.6243 17.5 77C17.5 107.376 41.6766 132 71.5 132Z" fill="#DADADA"/>
</g>
<path id="icon" d="M88.7839 84.4904L88.7839 84.4903C89.7193 83.559 91.2236 83.5532 92.1205 84.4462L92.4733 84.0919L92.1205 84.4463C92.6304 84.9539 92.8227 85.4122 92.8658 85.8004C92.9097 86.1952 92.8059 86.577 92.6205 86.936C92.4341 87.2968 92.1762 87.613 91.9449 87.8628C91.845 87.9708 91.7538 88.0625 91.6746 88.1421C91.6624 88.1543 91.6505 88.1663 91.6389 88.178C91.5974 88.2198 91.5549 88.263 91.52 88.3012L91.5177 88.3038C91.5044 88.3183 91.4777 88.3475 91.4495 88.3858C80.311 99.455 68.7844 101.233 65.7458 101.527L51.0353 86.8815C51.3168 85.2034 52.0326 81.4581 53.3536 77.4015C54.7508 73.1108 56.8023 68.5454 59.6777 65.6828L59.3249 65.3285L59.6777 65.6828C62.9023 62.4725 66.7686 62.2058 69.2831 62.4761L63.7556 70.2138C63.1183 71.0703 63.3442 72.2915 64.1952 72.8677C65.0446 73.4827 66.266 73.2749 66.8756 72.4018L85.627 46.2931C86.0352 45.7696 86.5046 45.5484 86.9436 45.5073C87.3948 45.465 87.8549 45.6097 88.2292 45.8896C88.6037 46.1697 88.8702 46.5687 88.9557 47.0062C89.0391 47.433 88.9583 47.9337 88.5735 48.4524L88.5639 48.4654L88.5551 48.479L75.8699 68.1121C75.363 68.8738 75.3628 69.9036 76.1778 70.6094C76.894 71.2606 77.9849 71.2386 78.694 70.6373L78.6941 70.6374L78.7041 70.6284L96.8885 54.3489C97.4765 53.8498 98.0742 53.7134 98.6018 53.7842C99.1426 53.8569 99.6489 54.1533 100.018 54.5843C100.387 55.0154 100.598 55.5565 100.581 56.0932C100.566 56.6175 100.332 57.1799 99.7334 57.6764L99.7221 57.6857L99.7114 57.6958C97.4901 59.7685 96.074 61.1216 94.8812 62.2612C92.0318 64.9837 90.4567 66.4886 82.225 73.6788C81.4465 74.352 81.2758 75.5712 81.9927 76.3976L81.993 76.398C82.6704 77.1774 83.892 77.3033 84.7175 76.5887C84.7181 76.5881 84.7188 76.5876 84.7194 76.587L87.9764 73.8114C90.3007 73.2306 91.8666 76.0264 90.1641 77.7213L90.5168 78.0756L90.164 77.7213L86.0775 81.7898C86.0774 81.7898 86.0774 81.7898 86.0774 81.7898C85.316 82.5478 85.2943 83.7512 86.0571 84.5106C86.8187 85.2688 88.0235 85.2473 88.7839 84.4904Z" fill="black" stroke="black"/>
</g>
</svg>
