<svg width="44" height="59" viewBox="0 0 44 59" fill="none" xmlns="http://www.w3.org/2000/svg">
<path d="M43.5814 31.9487L42.7189 31.0896C40.6568 29.0355 37.2859 28.5882 34.7684 30.0287L29.3926 33.0878L30.513 8.5864C30.513 6.5323 28.8348 4.8604 26.7702 4.8604C26.3244 4.8604 25.8953 4.9388 25.4972 5.0823L25.6307 3.7675C25.6309 1.6898 23.9263 0 21.8332 0C19.8975 0 18.274 1.4454 18.0689 3.2988L14.6194 24.0482C14.5741 24.3306 14.0829 24.3021 14.0305 24.1242L9.9563 7.4889C9.5105 5.9416 8.0706 4.8605 6.4543 4.8605C5.3363 4.8605 4.2968 5.3613 3.6008 6.2347C2.907 7.1081 2.6544 8.2317 2.9118 9.3152L3.7033 12.665C3.2527 12.6282 2.7998 12.6887 2.3683 12.8335C0.761499 13.3663 -0.2183 14.9635 0.0416002 16.6508L2.4398 30.3777C2.4398 35.7935 3.3934 39.8007 4.1944 42.2072C4.6497 43.5801 4.881 45.0242 4.881 46.4992C4.881 47.7831 4.7021 49.0612 4.3469 50.2952L2.4874 56.7769C2.3825 57.1429 2.4564 57.5369 2.6853 57.8419C2.9165 58.1459 3.2765 58.3249 3.6603 58.3249H25.6307C26.0241 58.3249 26.3912 58.1379 26.6201 57.8209C26.8513 57.5039 26.9133 57.0959 26.7893 56.7259C26.7774 56.6939 25.7571 53.5561 26.7226 49.2878C27.948 48.298 32.2366 44.826 33.7767 43.4259C36.3228 41.1107 43.2981 33.9577 43.5934 33.654C44.0584 33.1781 44.0534 32.4186 43.5814 31.9487Z" fill="white"/>
</svg>
