<svg width="62" height="60" viewBox="0 0 62 60" fill="none" xmlns="http://www.w3.org/2000/svg">
<path fill-rule="evenodd" clip-rule="evenodd" d="M57.4556 0.675061C55.0648 -0.538839 51.9701 -0.105642 48.7413 1.89416C46.188 3.47576 43.8441 5.87796 42.6245 8.16326C40.2954 12.5272 41.2087 16.3751 41.7965 17.9997C40.9928 20.5526 39.8833 22.674 38.4723 24.3615C37.3349 22.9362 36.7004 21.1406 36.7004 19.2624V19.1709L39.6897 16.0854C40.0091 15.7556 40.836 14.4561 39.6896 13.2727C38.9372 12.4962 37.7171 12.4962 36.9647 13.2727L36.7002 13.5458V12.9247C36.7002 11.8265 35.8375 10.936 34.7734 10.936C33.7094 10.936 32.8467 11.8265 32.8467 12.9247V13.5458L32.5822 13.2727C31.8298 12.4962 30.6097 12.4962 29.8573 13.2727C29.1048 14.0493 29.1048 15.3086 29.8573 16.0853L32.8468 19.1706V19.2622C32.8468 22.1039 33.8166 24.8204 35.5552 26.964C32.433 28.9967 28.3882 29.6852 23.4434 29.0155C21.6595 28.7737 19.8583 28.7436 18.0927 28.9202C15.8784 26.6855 12.8436 25.4175 9.64698 25.4175H9.55698L6.52478 22.4349C5.76168 21.6843 4.52407 21.6843 3.76087 22.4349C2.99777 23.1856 2.99777 24.4029 3.76087 25.1537L4.02917 25.4176H3.41898C2.33968 25.4176 1.46468 26.2783 1.46468 27.34C1.46468 28.4016 2.33968 29.262 3.41898 29.262H4.02928L3.76087 29.5261C2.99777 30.2767 2.99777 31.494 3.76087 32.2448C4.14247 32.6202 4.64268 32.8079 5.14278 32.8079C5.64298 32.8079 6.14318 32.6202 6.52488 32.2448L9.55707 29.2621H9.64707C10.8304 29.2621 11.9801 29.5233 13.0223 30.0087C13.163 29.9705 13.3041 29.9334 13.4455 29.8976C13.4023 29.9118 13.3591 29.9261 13.316 29.9406C10.0092 31.0514 7.02648 32.9802 4.69078 35.5181C0.663076 39.8941 -0.811925 45.3517 0.425075 51.3012C1.33607 55.6819 3.41277 58.7859 3.50067 58.9159C3.87317 59.4669 4.48828 59.7829 5.13098 59.7829C5.28798 59.7829 5.44677 59.7639 5.60377 59.7259C6.40447 59.5269 6.99718 58.8489 7.08968 58.0259C7.09998 57.9359 8.16838 48.9356 13.6862 43.8433C14.389 43.1948 17.0458 41.128 21.7305 41.7625C23.384 41.9865 24.9835 42.12 26.528 42.1634C27.375 43.8097 27.6362 45.7127 27.2397 47.5566L27.2205 47.6459L23.6027 49.9984C22.6921 50.5907 22.4281 51.8177 23.0134 52.7391C23.5986 53.6609 24.8111 53.9276 25.7219 53.3356L26.0419 53.1274L25.9117 53.7325C25.6817 54.8029 26.3525 55.8589 27.4101 56.0919C27.5506 56.1229 27.6906 56.1379 27.8287 56.1379C28.7306 56.1379 29.5423 55.5039 29.7421 54.5761L29.8722 53.971L30.078 54.295C30.4524 54.8849 31.0838 55.2069 31.7286 55.2069C32.0913 55.2069 32.4584 55.1049 32.7864 54.8919C33.6968 54.2992 33.9608 53.0722 33.3755 52.1508L31.0508 48.4896L31.07 48.4002C31.5297 46.2628 31.3996 44.0717 30.7283 42.0477C36.0605 41.5828 40.6223 39.8849 44.3538 36.9665C44.7948 36.6216 45.2233 36.2605 45.639 35.8836C47.7649 37.7149 50.4987 38.7401 53.3627 38.7401H53.4524L56.4736 41.7226C56.8536 42.0982 57.3526 42.2858 57.8506 42.2858C58.3486 42.2858 58.8476 42.0981 59.2276 41.7226C59.9876 40.972 59.9876 39.7547 59.2276 39.004L58.9606 38.7399H59.5686C60.6436 38.7401 61.5156 37.8793 61.5156 36.8177C61.5156 35.7561 60.6436 34.8954 59.5676 34.8954H58.9596L59.2276 34.6315C59.9876 33.8809 59.9876 32.6636 59.2276 31.9128C58.4666 31.162 57.2336 31.1622 56.4736 31.9128L53.4523 34.8953H53.3626C51.4859 34.8953 49.6926 34.2373 48.2837 33.0587C50.4341 30.3585 52.1187 27.0932 53.3177 23.2941C56.4136 22.1936 58.6076 20.3839 59.8456 17.9075C62.0386 13.5202 62.8136 3.39536 57.4556 0.675061Z" fill="white"/>
</svg>
