<svg width="51" height="58" viewBox="0 0 51 58" fill="none" xmlns="http://www.w3.org/2000/svg">
<path d="M38.2839 39.4904L38.2839 39.4903C39.2193 38.559 40.7236 38.5532 41.6205 39.4462L41.9733 39.0919L41.6205 39.4463C42.1304 39.9539 42.3227 40.4122 42.3658 40.8004C42.4097 41.1952 42.3059 41.577 42.1205 41.936C41.9341 42.2968 41.6762 42.613 41.4449 42.8628C41.345 42.9708 41.2538 43.0625 41.1746 43.1421C41.1624 43.1543 41.1505 43.1663 41.1389 43.178C41.0974 43.2198 41.0549 43.263 41.02 43.3012L41.0177 43.3038C41.0044 43.3183 40.9777 43.3475 40.9495 43.3858C29.811 54.455 18.2844 56.2325 15.2458 56.5266L0.535258 41.8815C0.81678 40.2034 1.53256 36.4581 2.85358 32.4015C4.25081 28.1108 6.30234 23.5454 9.17766 20.6828L8.8249 20.3285L9.17767 20.6828C12.4023 17.4725 16.2686 17.2058 18.7831 17.4761L13.2556 25.2138C12.6183 26.0703 12.8442 27.2915 13.6952 27.8677C14.5446 28.4827 15.766 28.2749 16.3756 27.4018L35.127 1.29311C35.5352 0.769601 36.0046 0.548381 36.4436 0.507268C36.8948 0.465008 37.3549 0.60965 37.7292 0.889574C38.1037 1.16967 38.3702 1.56865 38.4557 2.00623C38.5391 2.43298 38.4583 2.93368 38.0735 3.45245L38.0639 3.46541L38.0551 3.47896L25.3699 23.1121C24.863 23.8738 24.8628 24.9036 25.6778 25.6094C26.394 26.2606 27.4849 26.2386 28.194 25.6373L28.1941 25.6374L28.2041 25.6284L46.3885 9.34887C46.9765 8.84981 47.5742 8.71336 48.1018 8.78423C48.6426 8.85688 49.1489 9.15328 49.5179 9.58428C49.8869 10.0154 50.0977 10.5565 50.0814 11.0932C50.0656 11.6175 49.8324 12.1799 49.2334 12.6764L49.2221 12.6857L49.2114 12.6958C46.9901 14.7685 45.574 16.1216 44.3812 17.2612C41.5318 19.9837 39.9567 21.4886 31.725 28.6788C30.9465 29.352 30.7758 30.5712 31.4927 31.3976L31.493 31.398C32.1704 32.1774 33.392 32.3033 34.2175 31.5887C34.2181 31.5881 34.2188 31.5876 34.2194 31.587L37.4764 28.8114C39.8007 28.2306 41.3666 31.0264 39.6641 32.7213L40.0168 33.0756L39.664 32.7213L35.5775 36.7898C35.5774 36.7898 35.5774 36.7898 35.5774 36.7898C34.816 37.5478 34.7943 38.7512 35.5571 39.5106C36.3187 40.2688 37.5235 40.2473 38.2839 39.4904Z" fill="white" stroke="black"/>
</svg>
